<svg width="20" height="20" viewBox="0 0 20 20" fill="none" xmlns="http://www.w3.org/2000/svg">
<path fill-rule="evenodd" clip-rule="evenodd" d="M13.5794 8.00459L9.77274 13.0046C9.61608 13.2104 9.37358 13.3321 9.11524 13.3338H9.10941C8.85358 13.3338 8.61191 13.2154 8.45358 13.0138L6.42691 10.4246C6.14358 10.0629 6.20691 9.53876 6.56941 9.25543C6.93191 8.97126 7.45524 9.03459 7.73941 9.39793L9.10024 11.1363L12.2536 6.99543C12.5319 6.62959 13.0552 6.55793 13.4219 6.83709C13.7877 7.11626 13.8586 7.63876 13.5794 8.00459ZM15.0002 2.50043H5.00024C3.62108 2.50043 2.50024 3.62126 2.50024 5.00043V15.0004C2.50024 16.3788 3.62108 17.5004 5.00024 17.5004H15.0002C16.3786 17.5004 17.5002 16.3788 17.5002 15.0004V5.00043C17.5002 3.62126 16.3786 2.50043 15.0002 2.50043Z" fill="#43DB83"/>
<mask id="mask0_2009_1917" style="mask-type:luminance" maskUnits="userSpaceOnUse" x="2" y="2" width="16" height="16">
<path fill-rule="evenodd" clip-rule="evenodd" d="M13.5794 8.00459L9.77274 13.0046C9.61608 13.2104 9.37358 13.3321 9.11524 13.3338H9.10941C8.85358 13.3338 8.61191 13.2154 8.45358 13.0138L6.42691 10.4246C6.14358 10.0629 6.20691 9.53876 6.56941 9.25543C6.93191 8.97126 7.45524 9.03459 7.73941 9.39793L9.10024 11.1363L12.2536 6.99543C12.5319 6.62959 13.0552 6.55793 13.4219 6.83709C13.7877 7.11626 13.8586 7.63876 13.5794 8.00459ZM15.0002 2.50043H5.00024C3.62108 2.50043 2.50024 3.62126 2.50024 5.00043V15.0004C2.50024 16.3788 3.62108 17.5004 5.00024 17.5004H15.0002C16.3786 17.5004 17.5002 16.3788 17.5002 15.0004V5.00043C17.5002 3.62126 16.3786 2.50043 15.0002 2.50043Z" fill="white"/>
</mask>
<g mask="url(#mask0_2009_1917)">
<rect width="20" height="20" fill="#43DB83"/>
</g>
</svg>
