<svg width="15" height="16" viewBox="0 0 15 16" fill="none" xmlns="http://www.w3.org/2000/svg">
<path d="M11.9542 3.00295L12.0064 3L12.0704 3.00394L12.1147 3.01181L12.1752 3.02904L12.2279 3.05167L12.2771 3.07972L12.3214 3.1127L12.3617 3.14961L12.3873 3.17864L12.4277 3.23573L12.4532 3.28297C12.4764 3.33218 12.4911 3.38435 12.4975 3.43848L12.5 3.49065C12.5 3.52756 12.4961 3.56398 12.4882 3.59892L12.471 3.65945L9.2564 12.5556C9.19546 12.6883 9.09773 12.8007 8.97482 12.8794C8.85191 12.9582 8.70898 13 8.56299 13C8.43151 13.0004 8.30216 12.9668 8.18755 12.9023C8.07293 12.8379 7.97695 12.7449 7.90896 12.6324L7.87697 12.5699L6.22736 9.27165L2.94488 7.62992C2.82343 7.57437 2.71868 7.48791 2.64113 7.37918C2.56357 7.27045 2.51593 7.14326 2.50295 7.01033L2.5 6.93701C2.5 6.66142 2.64813 6.40945 2.91388 6.26279L2.98278 6.22835L11.8494 3.02657L11.9016 3.01181L11.9542 3.00295Z" fill="#495DF6"/>
</svg>
