<svg width="24" height="23" viewBox="0 0 24 23" fill="none" xmlns="http://www.w3.org/2000/svg">
<circle cx="12" cy="11.5" r="11" fill="#246AF1"/>
<path d="M10.8955 16.4363C10.5651 16.4363 10.2866 16.297 10.0601 16.0186L7.17847 12.429C7.08879 12.3204 7.02507 12.2166 6.9873 12.1174C6.94954 12.0136 6.93066 11.9074 6.93066 11.7988C6.93066 11.5581 7.0109 11.3599 7.17139 11.2041C7.33187 11.0436 7.53719 10.9634 7.78735 10.9634C8.06584 10.9634 8.29948 11.0837 8.48828 11.3245L10.8672 14.3831L15.4692 7.06226C15.5778 6.90177 15.6887 6.78849 15.802 6.72241C15.9153 6.65161 16.0569 6.61621 16.2268 6.61621C16.4722 6.61621 16.6729 6.69409 16.8286 6.84985C16.9891 7.0009 17.0693 7.19678 17.0693 7.4375C17.0693 7.5319 17.0528 7.62866 17.0198 7.72778C16.9915 7.8269 16.9419 7.93075 16.8711 8.03931L11.731 15.9973C11.5327 16.29 11.2542 16.4363 10.8955 16.4363Z" fill="white"/>
</svg>
