<svg width="40" height="40" viewBox="0 0 40 40" fill="none" xmlns="http://www.w3.org/2000/svg">
<g filter="url(#filter0_b_20160_1937)">
<rect width="40" height="40" rx="12" fill="black" fill-opacity="0.05"/>
<path d="M28 19.3254C27.7554 17.5656 26.9391 15.935 25.6766 14.6849C24.4142 13.4347 22.7758 12.6343 21.0137 12.4069C19.2516 12.1796 17.4636 12.5379 15.9252 13.4266C14.3868 14.3154 13.1832 15.6853 12.5 17.3254M12 13.3254V17.3254H16M12 21.3254C12.2446 23.0852 13.0609 24.7157 14.3234 25.9659C15.5858 27.216 17.2242 28.0165 18.9863 28.2438C20.7484 28.4712 22.5364 28.1129 24.0748 27.2241C25.6132 26.3354 26.8168 24.9654 27.5 23.3254M28 27.3254V23.3254H24" stroke="#0C0B0E" stroke-width="1.5" stroke-linecap="round" stroke-linejoin="round"/>
</g>
<defs>
<filter id="filter0_b_20160_1937" x="-80" y="-80" width="200" height="200" filterUnits="userSpaceOnUse" color-interpolation-filters="sRGB">
<feFlood flood-opacity="0" result="BackgroundImageFix"/>
<feGaussianBlur in="BackgroundImageFix" stdDeviation="40"/>
<feComposite in2="SourceAlpha" operator="in" result="effect1_backgroundBlur_20160_1937"/>
<feBlend mode="normal" in="SourceGraphic" in2="effect1_backgroundBlur_20160_1937" result="shape"/>
</filter>
</defs>
</svg>
